<?xml version="1.0" encoding="UTF-8" standalone="no"?>
<!-- Created with Inkscape (http://www.inkscape.org/) -->

<svg
   xmlns:dc="http://purl.org/dc/elements/1.1/"
   xmlns:cc="http://creativecommons.org/ns#"
   xmlns:rdf="http://www.w3.org/1999/02/22-rdf-syntax-ns#"
   xmlns:svg="http://www.w3.org/2000/svg"
   xmlns="http://www.w3.org/2000/svg"
   xmlns:sodipodi="http://sodipodi.sourceforge.net/DTD/sodipodi-0.dtd"
   xmlns:inkscape="http://www.inkscape.org/namespaces/inkscape"
   version="1.1"
   id="svg2"
   xml:space="preserve"
   width="161.035"
   height="157.058"
   viewBox="0 0 161.035 157.058"
   sodipodi:docname="GitHub-white.svg"
   inkscape:version="0.92.2 (5c3e80d, 2017-08-06)"><metadata
     id="metadata8"><rdf:RDF><cc:Work
         rdf:about=""><dc:format>image/svg+xml</dc:format><dc:type
           rdf:resource="http://purl.org/dc/dcmitype/StillImage" /><dc:title></dc:title></cc:Work></rdf:RDF></metadata><defs
     id="defs6"><clipPath
       clipPathUnits="userSpaceOnUse"
       id="clipPath20"><path
         d="M 0,551.986 H 530.973 V 0 H 0 Z"
         id="path18"
         inkscape:connector-curvature="0" /></clipPath></defs><sodipodi:namedview
     pagecolor="#ffffff"
     bordercolor="#666666"
     borderopacity="1"
     objecttolerance="10"
     gridtolerance="10"
     guidetolerance="10"
     inkscape:pageopacity="0"
     inkscape:pageshadow="2"
     inkscape:window-width="1920"
     inkscape:window-height="977"
     id="namedview4"
     showgrid="false"
     inkscape:zoom="1.8139286"
     inkscape:cx="-55.904375"
     inkscape:cy="46.686502"
     inkscape:window-x="0"
     inkscape:window-y="28"
     inkscape:window-maximized="1"
     inkscape:current-layer="svg2" /><g
     inkscape:groupmode="layer"
     id="layer1"
     inkscape:label="tream"
     style="display:inline;fill:#ffffff"
     transform="translate(0,-578.92332)"><path
       d="M 80.517331,578.92334 C 36.054666,578.92334 0,614.97 0,659.44067 0,695.014 23.070666,725.19533 55.062665,735.842 c 4.024,0.74533 5.501333,-1.74667 5.501333,-3.87334 0,-1.91866 -0.07467,-8.26266 -0.109333,-14.99066 -22.399999,4.87066 -27.126666,-9.5 -27.126666,-9.5 -3.662666,-9.30534 -8.94,-11.78134 -8.94,-11.78134 -7.305333,-4.99733 0.550667,-4.89466 0.550667,-4.89466 8.085333,0.568 12.342666,8.29866 12.342666,8.29866 7.181334,12.308 18.836,8.74934 23.430666,6.692 0.724,-5.20266 2.809334,-8.756 5.112,-10.76666 -17.883999,-2.03467 -36.683999,-8.94 -36.683999,-39.792 0,-8.78933 3.145334,-15.97333 8.296,-21.612 -0.836,-2.028 -3.592,-10.21733 0.781333,-21.308 0,0 6.761334,-2.16266 22.146666,8.25467 6.422667,-1.784 13.310667,-2.67867 20.153333,-2.71067 6.842667,0.032 13.736,0.92667 20.170669,2.71067 15.368,-10.41733 22.12,-8.25467 22.12,-8.25467 4.38266,11.09067 1.62666,19.28 0.79066,21.308 5.16267,5.63867 8.28534,12.82267 8.28534,21.612 0,30.92666 -18.836,37.73466 -36.765336,39.728 2.888,2.49866 5.461336,7.39866 5.461336,14.91066 0,10.77334 -0.092,19.444 -0.092,22.096 0,2.144 1.448,4.65334 5.52933,3.864 31.976,-10.65866 55.01733,-40.82933 55.01733,-76.39199 0,-44.47067 -36.04933,-80.51733 -80.517329,-80.51733"
       style="fill:#ffffff;fill-opacity:1;fill-rule:evenodd;stroke:none;stroke-width:1.33333325"
       id="path28"
       inkscape:connector-curvature="0" /><g
       id="g30"
       transform="matrix(1.3333333,0,0,-1.3333333,30.496479,694.5276)"
       style="fill:#ffffff"><path
         d="m 0,0 c -0.133,-0.301 -0.605,-0.391 -1.035,-0.185 -0.439,0.198 -0.684,0.607 -0.542,0.908 0.13,0.308 0.602,0.394 1.04,0.188 C -0.099,0.714 0.151,0.301 0,0"
         style="fill:#ffffff;fill-opacity:1;fill-rule:nonzero;stroke:none"
         id="path32"
         inkscape:connector-curvature="0" /></g><g
       id="g34"
       transform="matrix(1.3333333,0,0,-1.3333333,33.758314,698.1656)"
       style="fill:#ffffff"><path
         d="M 0,0 C -0.288,-0.267 -0.852,-0.143 -1.233,0.279 -1.629,0.7 -1.702,1.264 -1.41,1.534 -1.113,1.801 -0.567,1.676 -0.172,1.255 0.224,0.829 0.301,0.271 0,0"
         style="fill:#ffffff;fill-opacity:1;fill-rule:nonzero;stroke:none"
         id="path36"
         inkscape:connector-curvature="0" /></g><g
       id="g38"
       transform="matrix(1.3333333,0,0,-1.3333333,36.932513,702.80226)"
       style="fill:#ffffff"><path
         d="M 0,0 C -0.37,-0.258 -0.976,-0.017 -1.35,0.52 -1.72,1.058 -1.72,1.702 -1.341,1.96 -0.967,2.218 -0.37,1.985 0.009,1.453 0.378,0.907 0.378,0.263 0,0"
         style="fill:#ffffff;fill-opacity:1;fill-rule:nonzero;stroke:none"
         id="path40"
         inkscape:connector-curvature="0" /></g><g
       id="g42"
       transform="matrix(1.3333333,0,0,-1.3333333,41.28188,707.2828)"
       style="fill:#ffffff"><path
         d="M 0,0 C -0.331,-0.365 -1.036,-0.267 -1.552,0.232 -2.08,0.718 -2.227,1.409 -1.896,1.774 -1.56,2.14 -0.851,2.037 -0.331,1.543 0.193,1.057 0.352,0.361 0,0"
         style="fill:#ffffff;fill-opacity:1;fill-rule:nonzero;stroke:none"
         id="path44"
         inkscape:connector-curvature="0" /></g><path
       d="m 47.282027,709.88426 c -0.196,0.63067 -1.1,0.916 -2.012,0.648 -0.910666,-0.276 -1.506666,-1.01333 -1.322666,-1.65067 0.189333,-0.63466 1.098666,-0.93333 2.017333,-0.64666 0.909333,0.27466 1.506667,1.008 1.317333,1.64933"
       style="fill:#ffffff;fill-opacity:1;fill-rule:nonzero;stroke:none;stroke-width:1.33333325"
       id="path48"
       inkscape:connector-curvature="0" /><g
       id="g50"
       transform="matrix(1.3333333,0,0,-1.3333333,53.871333,710.36613)"
       style="fill:#ffffff"><path
         d="m 0,0 c 0.017,-0.498 -0.563,-0.911 -1.281,-0.92 -0.722,-0.016 -1.307,0.387 -1.315,0.877 0,0.503 0.568,0.911 1.289,0.924 C -0.589,0.895 0,0.494 0,0"
         style="fill:#ffffff;fill-opacity:1;fill-rule:nonzero;stroke:none"
         id="path52"
         inkscape:connector-curvature="0" /></g><g
       id="g54"
       transform="matrix(1.3333333,0,0,-1.3333333,60.00296,709.32306)"
       style="fill:#ffffff"><path
         d="m 0,0 c 0.086,-0.485 -0.413,-0.984 -1.126,-1.117 -0.701,-0.129 -1.35,0.172 -1.439,0.653 -0.087,0.498 0.42,0.997 1.121,1.126 C -0.73,0.786 -0.091,0.494 0,0"
         style="fill:#ffffff;fill-opacity:1;fill-rule:nonzero;stroke:none"
         id="path56"
         inkscape:connector-curvature="0" /></g></g></svg>