<?xml version="1.0" encoding="UTF-8" standalone="no"?>
<!-- Generator: Adobe Illustrator 18.1.1, SVG Export Plug-In . SVG Version: 6.00 Build 0)  -->

<svg
   xmlns:dc="http://purl.org/dc/elements/1.1/"
   xmlns:cc="http://creativecommons.org/ns#"
   xmlns:rdf="http://www.w3.org/1999/02/22-rdf-syntax-ns#"
   xmlns:svg="http://www.w3.org/2000/svg"
   xmlns="http://www.w3.org/2000/svg"
   xmlns:sodipodi="http://sodipodi.sourceforge.net/DTD/sodipodi-0.dtd"
   xmlns:inkscape="http://www.inkscape.org/namespaces/inkscape"
   version="1.1"
   id="Capa_1"
   x="0px"
   y="0px"
   viewBox="0 0 45.919 35.610002"
   xml:space="preserve"
   sodipodi:docname="Guestbook-white.svg"
   inkscape:version="0.92.2 (5c3e80d, 2017-08-06)"
   width="45.918999"
   height="35.610001"><metadata
     id="metadata47"><rdf:RDF><cc:Work
         rdf:about=""><dc:format>image/svg+xml</dc:format><dc:type
           rdf:resource="http://purl.org/dc/dcmitype/StillImage" /><dc:title /></cc:Work></rdf:RDF></metadata><defs
     id="defs45" /><sodipodi:namedview
     pagecolor="#ffffff"
     bordercolor="#666666"
     borderopacity="1"
     objecttolerance="10"
     gridtolerance="10"
     guidetolerance="10"
     inkscape:pageopacity="0"
     inkscape:pageshadow="2"
     inkscape:window-width="1920"
     inkscape:window-height="977"
     id="namedview43"
     showgrid="false"
     inkscape:zoom="10.27897"
     inkscape:cx="36.096587"
     inkscape:cy="24.694651"
     inkscape:window-x="0"
     inkscape:window-y="28"
     inkscape:window-maximized="1"
     inkscape:current-layer="Capa_1" /><g
     id="g10"
     style="fill:#ffffff"
     transform="translate(0,-5.155)"><g
       id="g8"
       style="fill:#ffffff"><path
         style="fill:#ffffff"
         d="m 45.168,9.366 c -1.169,0 -2.339,0 -3.509,0 0.211,0.225 0.406,0.462 0.577,0.712 C 42.065,9.828 41.87,9.591 41.659,9.367 41.128,8.801 40.5,8.314 39.897,7.906 38.214,6.767 36.242,6.023 34.268,5.584 30.41,4.726 25.723,5.103 23.235,8.548 23.211,8.583 23.181,8.613 23.156,8.649 v 0 C 23.181,8.613 23.21,8.582 23.236,8.547 22.163,7.014 20.512,6.018 18.714,5.545 14.782,4.51 10.134,5.629 6.76,7.782 6.073,8.22 5.389,8.747 4.821,9.366 4.407,9.816 4.06,10.315 3.818,10.867 3.754,11.012 3.692,11.158 3.644,11.31 c -0.198,0.629 -0.115,1.34 -0.115,1.989 0,7.048 0,14.096 0,21.145 0,0.674 0,1.349 0,2.021 0,0.299 0.325,0.604 0.633,0.482 2.302,-0.903 4.793,-1.489 7.241,-1.795 3.713,-0.465 8.195,-0.228 10.8,2.763 -5.107,0 -10.213,0 -15.32,0 -1.794,0 -3.588,0 -5.383,0 0,-5.134 0,-10.267 0,-15.399 0,-3.883 0,-7.766 0,-11.649 0.772,0 1.545,0 2.318,0 0.242,-0.552 0.589,-1.051 1.001,-1.5 -1.356,0 -2.712,0 -4.069,0 -0.409,0 -0.75,0.341 -0.75,0.75 0,5.833 0,11.666 0,17.499 0,4.135 0,8.268 0,12.399 0,0.409 0.341,0.75 0.75,0.75 4.689,0 9.379,0 14.068,0 7.811,0 15.622,0 23.432,0 2.307,0 4.611,0 6.917,0 0.204,0 0.356,-0.075 0.476,-0.183 0.018,-0.014 0.037,-0.024 0.053,-0.04 0.015,-0.017 0.023,-0.032 0.037,-0.048 0.107,-0.119 0.186,-0.272 0.186,-0.479 0,-5.833 0,-11.666 0,-17.499 0,-4.133 0,-8.266 0,-12.399 -10e-4,-0.41 -0.342,-0.751 -0.751,-0.751 z m -2.496,1.5 c 0.582,0 1.164,0 1.746,0 0,5.583 0,11.166 0,16.749 0,3.439 0,6.879 0,10.316 -0.03,-0.003 -0.052,-0.017 -0.084,-0.017 -4.763,0 -9.526,0 -14.29,0 -1.951,0 -3.901,0 -5.853,0 2.896,-2.41 7.142,-2.608 10.749,-2.333 2.474,0.188 4.996,0.626 7.369,1.365 0.312,0.099 0.633,-0.164 0.633,-0.48 0,-6.191 0,-12.383 0,-18.575 0,-1.488 0,-2.976 0,-4.464 0,-0.645 0.074,-1.335 -0.074,-1.969 -0.049,-0.204 -0.115,-0.4 -0.196,-0.592 -0.085,-0.202 -0.204,-0.391 -0.32,-0.58 0.116,0.189 0.234,0.377 0.32,0.58 z M 23.53,9.896 c 10e-4,0.232 0.033,0.033 0.104,-0.103 0.134,-0.257 0.291,-0.501 0.456,-0.739 1.147,-1.648 3.08,-2.464 5.005,-2.758 2.086,-0.318 4.271,0.007 6.273,0.608 1.828,0.548 3.658,1.406 5.089,2.69 0.522,0.469 1.026,1.033 1.303,1.689 0.06,0.143 0.104,0.291 0.144,0.44 0.016,0.053 0.039,0.301 0.039,0.169 0,0.067 0,0.134 0,0.202 0,0.977 0,1.954 0,2.932 0,6.925 0,13.85 0,20.774 0,0.003 0,0.007 0,0.01 -2.317,-0.662 -4.746,-1.056 -7.14,-1.238 -3.778,-0.287 -8.175,0.045 -11.208,2.539 -0.01,-4.379 -0.021,-8.758 -0.032,-13.137 1.1,1.176 2.2,2.35 3.299,3.524 0.443,0.473 0.887,0.946 1.33,1.42 0.179,0.19 0.529,0.198 0.707,0 0.894,-0.996 1.787,-1.993 2.681,-2.989 0.187,-0.208 0.194,-0.5 0,-0.707 -2.679,-2.861 -5.356,-5.723 -8.034,-8.584 -0.005,-1.874 -0.009,-3.748 -0.014,-5.622 -0.001,-0.317 -0.002,-0.633 -0.002,-0.95 0,-0.057 0,-0.113 0,-0.17 z m -7.312,4.768 c -0.325,-0.348 -0.651,-0.695 -0.976,-1.043 0.73,-0.684 1.461,-1.367 2.191,-2.051 4.114,4.394 8.227,8.789 12.339,13.183 0.258,0.277 0.518,0.554 0.775,0.83 -0.67,0.747 -1.34,1.495 -2.011,2.242 C 24.431,23.437 20.324,19.05 16.218,14.664 Z M 11.925,34.092 C 9.433,34.341 6.899,34.9 4.529,35.76 c 0,-5.957 0,-11.914 0,-17.872 0,-1.488 0,-2.976 0,-4.464 0,-0.406 0,-0.812 0,-1.218 0,-0.349 -0.012,-0.316 0.079,-0.632 0.429,-1.487 1.977,-2.553 3.239,-3.284 1.8,-1.042 3.839,-1.677 5.892,-1.972 1.997,-0.288 4.176,-0.186 6.038,0.647 0.892,0.399 1.672,0.978 2.313,1.714 0.218,0.25 0.399,0.526 0.568,0.811 0.112,-0.268 0.278,-0.519 0.437,-0.748 -0.157,0.229 -0.324,0.481 -0.437,0.749 -0.073,0.174 -0.129,0.352 -0.128,0.532 10e-4,0.296 10e-4,0.592 0.002,0.889 0.003,1.253 0.006,2.506 0.009,3.76 0.001,0.298 0.001,0.597 0.002,0.895 -1.21,-1.293 -2.421,-2.587 -3.632,-3.88 -0.367,-0.393 -0.734,-0.785 -1.1,-1.177 -0.191,-0.204 -0.513,-0.181 -0.707,0 -0.973,0.911 -1.947,1.822 -2.92,2.733 -0.164,0.153 -0.179,0.335 -0.119,0.493 0.02,0.074 0.054,0.147 0.118,0.215 2.793,2.984 5.585,5.968 8.378,8.952 0.011,4.522 0.022,9.045 0.033,13.568 0,0.142 0,0.283 10e-4,0.425 0.001,0.449 0.003,0.896 0.003,1.348 0,-0.45 -0.002,-0.898 -0.003,-1.348 -2.728,-2.731 -6.906,-3.18 -10.67,-2.804 z m 32.409,5.322 c 0.468,0 0.708,-0.348 0.721,-0.707 -0.013,0.36 -0.252,0.707 -0.721,0.707 z"
         id="path2"
         inkscape:connector-curvature="0" /><path
         style="fill:#ffffff"
         d="m 29.022,28.907 c -0.285,0.275 -0.125,0.718 0.222,0.836 1.208,0.416 2.417,0.832 3.625,1.25 0.368,0.129 0.707,-0.266 0.614,-0.614 -0.334,-1.267 -0.668,-2.531 -1,-3.797 -0.062,-0.239 -0.242,-0.347 -0.431,-0.354 -0.135,-0.021 -0.278,0.01 -0.405,0.133 -0.875,0.849 -1.75,1.697 -2.625,2.546 z m 3.256,0.827 c -0.656,-0.228 -1.313,-0.453 -1.971,-0.681 0.476,-0.461 0.951,-0.923 1.428,-1.384 0.182,0.688 0.362,1.376 0.543,2.065 z"
         id="path4"
         inkscape:connector-curvature="0" /><path
         style="fill:#ffffff"
         d="m 16.085,9.348 c -1,0.879 -2,1.759 -3,2.638 -0.485,0.426 0.225,1.131 0.707,0.707 1,-0.879 2,-1.759 3,-2.638 0.485,-0.427 -0.225,-1.131 -0.707,-0.707 z"
         id="path6"
         inkscape:connector-curvature="0" /></g></g><g
     id="g12"
     transform="translate(0,-10.308999)" /><g
     id="g14"
     transform="translate(0,-10.308999)" /><g
     id="g16"
     transform="translate(0,-10.308999)" /><g
     id="g18"
     transform="translate(0,-10.308999)" /><g
     id="g20"
     transform="translate(0,-10.308999)" /><g
     id="g22"
     transform="translate(0,-10.308999)" /><g
     id="g24"
     transform="translate(0,-10.308999)" /><g
     id="g26"
     transform="translate(0,-10.308999)" /><g
     id="g28"
     transform="translate(0,-10.308999)" /><g
     id="g30"
     transform="translate(0,-10.308999)" /><g
     id="g32"
     transform="translate(0,-10.308999)" /><g
     id="g34"
     transform="translate(0,-10.308999)" /><g
     id="g36"
     transform="translate(0,-10.308999)" /><g
     id="g38"
     transform="translate(0,-10.308999)" /><g
     id="g40"
     transform="translate(0,-10.308999)" /></svg>