<?xml version="1.0" encoding="UTF-8" standalone="no"?>
<!-- Created with Inkscape (http://www.inkscape.org/) -->

<svg
   xmlns:dc="http://purl.org/dc/elements/1.1/"
   xmlns:cc="http://creativecommons.org/ns#"
   xmlns:rdf="http://www.w3.org/1999/02/22-rdf-syntax-ns#"
   xmlns:svg="http://www.w3.org/2000/svg"
   xmlns="http://www.w3.org/2000/svg"
   xmlns:sodipodi="http://sodipodi.sourceforge.net/DTD/sodipodi-0.dtd"
   xmlns:inkscape="http://www.inkscape.org/namespaces/inkscape"
   width="230.214mm"
   height="212.815mm"
   viewBox="0 0 230.214 212.815"
   version="1.1"
   id="svg8"
   inkscape:version="0.92.2 (5c3e80d, 2017-08-06)"
   sodipodi:docname="drawing.svg">
  <defs
     id="defs2" />
  <sodipodi:namedview
     id="base"
     pagecolor="#ffffff"
     bordercolor="#666666"
     borderopacity="1.0"
     inkscape:pageopacity="0.0"
     inkscape:pageshadow="2"
     inkscape:zoom="0.7"
     inkscape:cx="286.55661"
     inkscape:cy="443.59052"
     inkscape:document-units="mm"
     inkscape:current-layer="layer1"
     showgrid="false"
     inkscape:window-width="1920"
     inkscape:window-height="977"
     inkscape:window-x="0"
     inkscape:window-y="28"
     inkscape:window-maximized="1" />
  <metadata
     id="metadata5">
    <rdf:RDF>
      <cc:Work
         rdf:about="">
        <dc:format>image/svg+xml</dc:format>
        <dc:type
           rdf:resource="http://purl.org/dc/dcmitype/StillImage" />
        <dc:title></dc:title>
      </cc:Work>
    </rdf:RDF>
  </metadata>
  <g
     inkscape:label="Layer 1"
     inkscape:groupmode="layer"
     id="layer1"
     transform="translate(0,-84.185002)">
    <path
       style="fill:#000000"
       d="M 114.84331,84.185776 C 51.27231,84.368776 -0.14568985,125.23678 3.1015381e-4,175.45278 0.09331015,207.74278 21.48431,236.04278 53.64331,252.08378 l -10.732,40.56 a 3.3,3.3 0 0 0 5.183,3.637 l 46.574,-31.633 a 146.219,146.219 0 0 0 20.7,1.409 c 63.57,-0.183 114.989,-41.041 114.845,-91.265 -0.144,-50.224 -51.799,-90.788004 -115.37,-90.606004 z m -57.775,115.179004 c 0.01,3.552 -2.093,5.767 -5.491,5.777 -3.398,0.01 -5.509,-2.193 -5.519,-5.745 l -0.115,-39.985 -11.581,0.034 c -3.633,0.01 -4.93,-2.681 -4.937,-4.989 a 4.872,4.872 0 0 1 4.908,-5.032 l 34.165,-0.1 a 4.877,4.877 0 0 1 4.948,5 c 0.006,2.307 -1.278,5.006 -4.919,5.016 l -11.574,0.034 z m 53.291,5.612 a 5.123,5.123 0 0 1 -5.383,-3.809 l -2.429,-7.523 -23.007,0.066 -2.445,7.451 a 5.03,5.03 0 0 1 -5.284,3.926 5.206,5.206 0 0 1 -5.433,-5.075 6.412,6.412 0 0 1 0.5,-2.419 l 15.86,-42.382 c 1.136,-3.107 3.878,-6.427 8.172,-6.439 3.773,-0.011 6.769,2.314 8.219,6.379 l 15.612,42.225 a 9.153,9.153 0 0 1 0.631,2.826 4.844,4.844 0 0 1 -5.013,4.774 z m 42.286,-5.549 a 5.026,5.026 0 0 1 -5.248,4.823 l -20.522,0.058 c -3.6,0.011 -5.763,-2.262 -5.774,-6.077 l -0.126,-43.8 c -0.01,-3.546 2.094,-5.756 5.491,-5.765 3.397,-0.009 5.51,2.187 5.521,5.734 l 0.114,39.873 15.268,-0.044 a 5.278,5.278 0 0 1 3.969,1.522 4.941,4.941 0 0 1 1.307,3.676 z m 45.848,0.969 c -0.418,4.011 -4.3,4.333 -5.482,4.336 a 8.548,8.548 0 0 1 -0.86,-0.04 c -2.034,-0.2 -3.181,-1.477 -5.314,-4.339 l -14.522,-19.678 -3.945,4.046 0.043,14.824 a 5.268,5.268 0 0 1 -5.488,5.276 c -3.3,0.01 -5.518,-2.1 -5.527,-5.245 l -0.131,-45.575 a 5.29,5.29 0 0 1 5.5,-5.44 5.174,5.174 0 0 1 5.519,5.408 l 0.05,17.645 19.335,-20.272 a 6.144,6.144 0 0 1 4.374,-2.024 c 2.661,0.063 5.342,1.823 5.281,5.062 0,1.514 -0.9,2.516 -2.7,4.511 -0.407,0.452 -0.856,0.95 -1.342,1.508 l -13.217,13.412 15.739,20.485 c 1.626,2.109 2.974,3.854 2.687,6.1 z"
       id="path12"
       inkscape:connector-curvature="0" />
    <path
       style="fill:#000000"
       d="m 90.827,158.864 -8.222,25.083 16.818,-0.049 -8.381,-25.034 a 0.113,0.113 0 0 0 -0.215,0 z"
       id="path14"
       inkscape:connector-curvature="0" />
  </g>
</svg>
